<mxfile host="app.diagrams.net" modified="2020-09-21T09:42:08.024Z" agent="5.0 (X11; Linux x86_64) AppleWebKit/537.36 (KHTML, like Gecko) Chrome/85.0.4183.102 Safari/537.36" etag="btxqUzg0XyjovXrKQWiZ" version="13.7.3" type="github">
  <diagram id="kgpKYQtTHZ0yAKxKKP6v" name="Page-1">
    <mxGraphModel dx="1184" dy="686" grid="1" gridSize="10" guides="1" tooltips="1" connect="1" arrows="1" fold="1" page="1" pageScale="1" pageWidth="850" pageHeight="1100" math="0" shadow="0">
      <root>
        <mxCell id="0" />
        <mxCell id="1" parent="0" />
        <mxCell id="3nuBFxr9cyL0pnOWT2aG-5" value="Application" style="shape=umlLifeline;perimeter=lifelinePerimeter;container=1;collapsible=0;recursiveResize=0;rounded=0;shadow=0;strokeWidth=1;" parent="1" vertex="1">
          <mxGeometry x="430" y="180" width="80" height="500" as="geometry" />
        </mxCell>
        <mxCell id="qz1RpwUiMrSi03lGUybZ-2" value="Firebase" style="rounded=0;whiteSpace=wrap;html=1;" vertex="1" parent="1">
          <mxGeometry x="590" y="180" width="80" height="40" as="geometry" />
        </mxCell>
        <mxCell id="qz1RpwUiMrSi03lGUybZ-5" value="" style="shape=umlActor;verticalLabelPosition=bottom;verticalAlign=top;html=1;" vertex="1" parent="1">
          <mxGeometry x="290" y="150" width="40" height="70" as="geometry" />
        </mxCell>
        <mxCell id="qz1RpwUiMrSi03lGUybZ-10" value="" style="endArrow=none;dashed=1;html=1;" edge="1" parent="1" target="qz1RpwUiMrSi03lGUybZ-5">
          <mxGeometry width="50" height="50" relative="1" as="geometry">
            <mxPoint x="310" y="681" as="sourcePoint" />
            <mxPoint x="315" y="240" as="targetPoint" />
          </mxGeometry>
        </mxCell>
        <mxCell id="qz1RpwUiMrSi03lGUybZ-14" value="" style="endArrow=none;dashed=1;html=1;entryX=0.5;entryY=1;entryDx=0;entryDy=0;exitX=0.912;exitY=1.001;exitDx=0;exitDy=0;exitPerimeter=0;" edge="1" parent="1" source="qz1RpwUiMrSi03lGUybZ-93" target="qz1RpwUiMrSi03lGUybZ-2">
          <mxGeometry width="50" height="50" relative="1" as="geometry">
            <mxPoint x="630" y="740" as="sourcePoint" />
            <mxPoint x="590" y="340" as="targetPoint" />
          </mxGeometry>
        </mxCell>
        <mxCell id="qz1RpwUiMrSi03lGUybZ-21" value="" style="endArrow=classic;html=1;" edge="1" parent="1">
          <mxGeometry width="50" height="50" relative="1" as="geometry">
            <mxPoint x="310" y="249" as="sourcePoint" />
            <mxPoint x="469.5" y="249.31" as="targetPoint" />
            <Array as="points">
              <mxPoint x="440" y="249.31" />
            </Array>
          </mxGeometry>
        </mxCell>
        <mxCell id="qz1RpwUiMrSi03lGUybZ-22" value="Login" style="edgeLabel;html=1;align=center;verticalAlign=middle;resizable=0;points=[];" vertex="1" connectable="0" parent="qz1RpwUiMrSi03lGUybZ-21">
          <mxGeometry x="-0.2031" y="-2" relative="1" as="geometry">
            <mxPoint x="16.58" y="-12" as="offset" />
          </mxGeometry>
        </mxCell>
        <mxCell id="qz1RpwUiMrSi03lGUybZ-43" value="" style="endArrow=classic;html=1;dashed=1;" edge="1" parent="1">
          <mxGeometry width="50" height="50" relative="1" as="geometry">
            <mxPoint x="469.5" y="300" as="sourcePoint" />
            <mxPoint x="310" y="300" as="targetPoint" />
          </mxGeometry>
        </mxCell>
        <mxCell id="qz1RpwUiMrSi03lGUybZ-44" value="Display status PL&amp;amp; Options" style="edgeLabel;html=1;align=center;verticalAlign=middle;resizable=0;points=[];fontSize=10;" vertex="1" connectable="0" parent="qz1RpwUiMrSi03lGUybZ-43">
          <mxGeometry x="0.13" y="-2" relative="1" as="geometry">
            <mxPoint x="10.79" y="-8" as="offset" />
          </mxGeometry>
        </mxCell>
        <mxCell id="qz1RpwUiMrSi03lGUybZ-46" value="" style="endArrow=classic;html=1;" edge="1" parent="1" target="3nuBFxr9cyL0pnOWT2aG-5">
          <mxGeometry width="50" height="50" relative="1" as="geometry">
            <mxPoint x="310" y="340" as="sourcePoint" />
            <mxPoint x="470" y="350" as="targetPoint" />
          </mxGeometry>
        </mxCell>
        <mxCell id="qz1RpwUiMrSi03lGUybZ-48" value="" style="endArrow=classic;html=1;" edge="1" parent="1">
          <mxGeometry width="50" height="50" relative="1" as="geometry">
            <mxPoint x="470" y="260" as="sourcePoint" />
            <mxPoint x="629.5" y="260" as="targetPoint" />
          </mxGeometry>
        </mxCell>
        <mxCell id="qz1RpwUiMrSi03lGUybZ-49" value="Send request status PL" style="text;html=1;align=center;verticalAlign=middle;resizable=0;points=[];autosize=1;fontSize=10;" vertex="1" parent="1">
          <mxGeometry x="490" y="240" width="120" height="20" as="geometry" />
        </mxCell>
        <mxCell id="qz1RpwUiMrSi03lGUybZ-50" value="" style="endArrow=classic;html=1;dashed=1;" edge="1" parent="1">
          <mxGeometry width="50" height="50" relative="1" as="geometry">
            <mxPoint x="629.75" y="290" as="sourcePoint" />
            <mxPoint x="470.25" y="290" as="targetPoint" />
          </mxGeometry>
        </mxCell>
        <mxCell id="qz1RpwUiMrSi03lGUybZ-51" value="Status PL" style="edgeLabel;html=1;align=center;verticalAlign=middle;resizable=0;points=[];fontSize=10;" vertex="1" connectable="0" parent="qz1RpwUiMrSi03lGUybZ-50">
          <mxGeometry x="0.13" y="-2" relative="1" as="geometry">
            <mxPoint x="10.79" y="-8" as="offset" />
          </mxGeometry>
        </mxCell>
        <mxCell id="qz1RpwUiMrSi03lGUybZ-52" value="&lt;font style=&quot;font-size: 10px&quot;&gt;New booking &lt;br&gt;(Time,location, License plates)&lt;/font&gt;" style="text;html=1;align=center;verticalAlign=middle;resizable=0;points=[];autosize=1;fontSize=10;" vertex="1" parent="1">
          <mxGeometry x="315" y="310" width="150" height="30" as="geometry" />
        </mxCell>
        <mxCell id="qz1RpwUiMrSi03lGUybZ-56" value="" style="endArrow=classic;html=1;" edge="1" parent="1">
          <mxGeometry width="50" height="50" relative="1" as="geometry">
            <mxPoint x="470.25" y="390" as="sourcePoint" />
            <mxPoint x="629.75" y="390" as="targetPoint" />
          </mxGeometry>
        </mxCell>
        <mxCell id="qz1RpwUiMrSi03lGUybZ-57" value="Send &amp;amp; save data" style="text;html=1;align=center;verticalAlign=middle;resizable=0;points=[];autosize=1;fontSize=10;" vertex="1" parent="1">
          <mxGeometry x="505" y="370" width="90" height="20" as="geometry" />
        </mxCell>
        <mxCell id="qz1RpwUiMrSi03lGUybZ-64" value="" style="endArrow=classic;html=1;dashed=1;" edge="1" parent="1">
          <mxGeometry width="50" height="50" relative="1" as="geometry">
            <mxPoint x="469.75" y="360" as="sourcePoint" />
            <mxPoint x="310.25" y="360" as="targetPoint" />
          </mxGeometry>
        </mxCell>
        <mxCell id="qz1RpwUiMrSi03lGUybZ-65" value="&lt;span style=&quot;font-size: 10px&quot;&gt;Request payment&lt;/span&gt;" style="edgeLabel;html=1;align=center;verticalAlign=middle;resizable=0;points=[];fontSize=10;" vertex="1" connectable="0" parent="qz1RpwUiMrSi03lGUybZ-64">
          <mxGeometry x="0.13" y="-2" relative="1" as="geometry">
            <mxPoint x="10.79" y="-8" as="offset" />
          </mxGeometry>
        </mxCell>
        <mxCell id="qz1RpwUiMrSi03lGUybZ-67" value="" style="endArrow=classic;html=1;" edge="1" parent="1">
          <mxGeometry width="50" height="50" relative="1" as="geometry">
            <mxPoint x="310.25" y="380" as="sourcePoint" />
            <mxPoint x="469.75" y="380" as="targetPoint" />
          </mxGeometry>
        </mxCell>
        <mxCell id="qz1RpwUiMrSi03lGUybZ-68" value="Payment success" style="text;html=1;align=center;verticalAlign=middle;resizable=0;points=[];autosize=1;fontSize=10;" vertex="1" parent="1">
          <mxGeometry x="340" y="360" width="90" height="20" as="geometry" />
        </mxCell>
        <mxCell id="qz1RpwUiMrSi03lGUybZ-69" value="" style="endArrow=classic;html=1;" edge="1" parent="1">
          <mxGeometry width="50" height="50" relative="1" as="geometry">
            <mxPoint x="310.25" y="470" as="sourcePoint" />
            <mxPoint x="469.75" y="470" as="targetPoint" />
          </mxGeometry>
        </mxCell>
        <mxCell id="qz1RpwUiMrSi03lGUybZ-70" value="Recent booking" style="text;html=1;align=center;verticalAlign=middle;resizable=0;points=[];autosize=1;fontSize=10;" vertex="1" parent="1">
          <mxGeometry x="345" y="450" width="90" height="20" as="geometry" />
        </mxCell>
        <mxCell id="qz1RpwUiMrSi03lGUybZ-72" value="" style="endArrow=classic;html=1;" edge="1" parent="1">
          <mxGeometry width="50" height="50" relative="1" as="geometry">
            <mxPoint x="470.25" y="480" as="sourcePoint" />
            <mxPoint x="629.75" y="480" as="targetPoint" />
          </mxGeometry>
        </mxCell>
        <mxCell id="qz1RpwUiMrSi03lGUybZ-73" value="Request recent booking" style="text;html=1;align=center;verticalAlign=middle;resizable=0;points=[];autosize=1;fontSize=10;" vertex="1" parent="1">
          <mxGeometry x="490" y="460" width="120" height="20" as="geometry" />
        </mxCell>
        <mxCell id="qz1RpwUiMrSi03lGUybZ-74" value="" style="endArrow=classic;html=1;dashed=1;" edge="1" parent="1">
          <mxGeometry width="50" height="50" relative="1" as="geometry">
            <mxPoint x="629.75" y="500" as="sourcePoint" />
            <mxPoint x="470.25" y="500" as="targetPoint" />
          </mxGeometry>
        </mxCell>
        <mxCell id="qz1RpwUiMrSi03lGUybZ-75" value="Recent booking" style="edgeLabel;html=1;align=center;verticalAlign=middle;resizable=0;points=[];fontSize=10;" vertex="1" connectable="0" parent="qz1RpwUiMrSi03lGUybZ-74">
          <mxGeometry x="0.13" y="-2" relative="1" as="geometry">
            <mxPoint x="10.79" y="-8" as="offset" />
          </mxGeometry>
        </mxCell>
        <mxCell id="qz1RpwUiMrSi03lGUybZ-76" value="" style="endArrow=classic;html=1;dashed=1;" edge="1" parent="1">
          <mxGeometry width="50" height="50" relative="1" as="geometry">
            <mxPoint x="469.75" y="510" as="sourcePoint" />
            <mxPoint x="310.25" y="510" as="targetPoint" />
          </mxGeometry>
        </mxCell>
        <mxCell id="qz1RpwUiMrSi03lGUybZ-77" value="Display recent booking" style="edgeLabel;html=1;align=center;verticalAlign=middle;resizable=0;points=[];fontSize=10;" vertex="1" connectable="0" parent="qz1RpwUiMrSi03lGUybZ-76">
          <mxGeometry x="0.13" y="-2" relative="1" as="geometry">
            <mxPoint x="10.79" y="-8" as="offset" />
          </mxGeometry>
        </mxCell>
        <mxCell id="qz1RpwUiMrSi03lGUybZ-78" value="" style="endArrow=classic;html=1;" edge="1" parent="1">
          <mxGeometry width="50" height="50" relative="1" as="geometry">
            <mxPoint x="310.25" y="580" as="sourcePoint" />
            <mxPoint x="469.75" y="580" as="targetPoint" />
          </mxGeometry>
        </mxCell>
        <mxCell id="qz1RpwUiMrSi03lGUybZ-79" value="Cancel booking" style="text;html=1;align=center;verticalAlign=middle;resizable=0;points=[];autosize=1;fontSize=10;" vertex="1" parent="1">
          <mxGeometry x="350" y="560" width="80" height="20" as="geometry" />
        </mxCell>
        <mxCell id="qz1RpwUiMrSi03lGUybZ-81" value="" style="endArrow=classic;html=1;dashed=1;" edge="1" parent="1">
          <mxGeometry width="50" height="50" relative="1" as="geometry">
            <mxPoint x="469.75" y="600" as="sourcePoint" />
            <mxPoint x="310.25" y="600" as="targetPoint" />
          </mxGeometry>
        </mxCell>
        <mxCell id="qz1RpwUiMrSi03lGUybZ-82" value="Sure ? (Yes/no)" style="edgeLabel;html=1;align=center;verticalAlign=middle;resizable=0;points=[];fontSize=10;" vertex="1" connectable="0" parent="qz1RpwUiMrSi03lGUybZ-81">
          <mxGeometry x="0.13" y="-2" relative="1" as="geometry">
            <mxPoint x="10.79" y="-8" as="offset" />
          </mxGeometry>
        </mxCell>
        <mxCell id="qz1RpwUiMrSi03lGUybZ-83" value="" style="endArrow=classic;html=1;" edge="1" parent="1">
          <mxGeometry width="50" height="50" relative="1" as="geometry">
            <mxPoint x="470.25" y="610" as="sourcePoint" />
            <mxPoint x="629.75" y="610" as="targetPoint" />
          </mxGeometry>
        </mxCell>
        <mxCell id="qz1RpwUiMrSi03lGUybZ-84" value="Send request delete data" style="text;html=1;align=center;verticalAlign=middle;resizable=0;points=[];autosize=1;fontSize=10;" vertex="1" parent="1">
          <mxGeometry x="480" y="590" width="130" height="20" as="geometry" />
        </mxCell>
        <mxCell id="qz1RpwUiMrSi03lGUybZ-85" value="" style="endArrow=classic;html=1;" edge="1" parent="1">
          <mxGeometry width="50" height="50" relative="1" as="geometry">
            <mxPoint x="310.25" y="660" as="sourcePoint" />
            <mxPoint x="469.75" y="660" as="targetPoint" />
          </mxGeometry>
        </mxCell>
        <mxCell id="qz1RpwUiMrSi03lGUybZ-86" value="Send feedback" style="text;html=1;align=center;verticalAlign=middle;resizable=0;points=[];autosize=1;fontSize=10;" vertex="1" parent="1">
          <mxGeometry x="350" y="640" width="80" height="20" as="geometry" />
        </mxCell>
        <mxCell id="qz1RpwUiMrSi03lGUybZ-89" value="[New booking]" style="text;html=1;align=center;verticalAlign=middle;resizable=0;points=[];autosize=1;fontSize=10;" vertex="1" parent="1">
          <mxGeometry x="230" y="350" width="80" height="20" as="geometry" />
        </mxCell>
        <mxCell id="qz1RpwUiMrSi03lGUybZ-90" value="[Recent Booking]" style="text;html=1;align=center;verticalAlign=middle;resizable=0;points=[];autosize=1;fontSize=10;" vertex="1" parent="1">
          <mxGeometry x="220" y="460" width="90" height="20" as="geometry" />
        </mxCell>
        <mxCell id="qz1RpwUiMrSi03lGUybZ-91" value="[Cancel booking]" style="text;html=1;align=center;verticalAlign=middle;resizable=0;points=[];autosize=1;fontSize=10;" vertex="1" parent="1">
          <mxGeometry x="220" y="570" width="90" height="20" as="geometry" />
        </mxCell>
        <mxCell id="qz1RpwUiMrSi03lGUybZ-92" value="[Send feedback]" style="text;html=1;align=center;verticalAlign=middle;resizable=0;points=[];autosize=1;fontSize=10;" vertex="1" parent="1">
          <mxGeometry x="220" y="650" width="90" height="20" as="geometry" />
        </mxCell>
        <mxCell id="qz1RpwUiMrSi03lGUybZ-93" value="Alt" style="shape=umlFrame;whiteSpace=wrap;html=1;fillColor=none;" vertex="1" parent="1">
          <mxGeometry x="210" y="310" width="460" height="370" as="geometry" />
        </mxCell>
        <mxCell id="qz1RpwUiMrSi03lGUybZ-94" value="" style="endArrow=none;dashed=1;html=1;fontSize=10;" edge="1" parent="1">
          <mxGeometry width="50" height="50" relative="1" as="geometry">
            <mxPoint x="230" y="420" as="sourcePoint" />
            <mxPoint x="670" y="420" as="targetPoint" />
          </mxGeometry>
        </mxCell>
        <mxCell id="qz1RpwUiMrSi03lGUybZ-95" value="" style="endArrow=none;dashed=1;html=1;fontSize=10;" edge="1" parent="1">
          <mxGeometry width="50" height="50" relative="1" as="geometry">
            <mxPoint x="230" y="540" as="sourcePoint" />
            <mxPoint x="670" y="540" as="targetPoint" />
          </mxGeometry>
        </mxCell>
        <mxCell id="qz1RpwUiMrSi03lGUybZ-96" value="" style="endArrow=none;dashed=1;html=1;fontSize=10;" edge="1" parent="1">
          <mxGeometry width="50" height="50" relative="1" as="geometry">
            <mxPoint x="230" y="630" as="sourcePoint" />
            <mxPoint x="670" y="630" as="targetPoint" />
          </mxGeometry>
        </mxCell>
        <mxCell id="qz1RpwUiMrSi03lGUybZ-98" value="User - Application - Firebase" style="text;html=1;align=center;verticalAlign=middle;resizable=0;points=[];autosize=1;fontSize=24;" vertex="1" parent="1">
          <mxGeometry x="290" y="60" width="320" height="30" as="geometry" />
        </mxCell>
      </root>
    </mxGraphModel>
  </diagram>
</mxfile>
